<?xml version="1.0" standalone="no"?>
<!DOCTYPE svg PUBLIC "-//W3C//DTD SVG 1.1//EN" "http://www.w3.org/Graphics/SVG/1.1/DTD/svg11.dtd" >
<svg>
<metadata>
Created by FontForge 20090914 at Sat Dec 10 15:39:47 2022
 By www-data
Copyright goldypuppydog 2010
&#226;&#128;&#156;twitterchirp&#226;&#128;&#157; is based on &#226;&#128;&#156;twitter&#226;&#128;&#157; by &#226;&#128;&#156;goldypuppydog&#226;&#128;&#157; (http://fontstruct.fontshop.com/fontstructors/goldypuppydog)
</metadata>
<defs>
<font id="twitterchirp" horiz-adv-x="256" >
  <font-face 
    font-family="twitterchirp"
    font-weight="400"
    font-stretch="normal"
    units-per-em="1024"
    panose-1="0 0 4 0 0 0 0 0 0 0"
    ascent="819"
    descent="-205"
    x-height="128"
    bbox="-64 -256 512 448"
    underline-thickness="51"
    underline-position="126"
    unicode-range="U+000D-U+203A"
  />
<missing-glyph 
d="M160 45v51h-51v-51h51zM210 104v51h-101v-51h101zM160 164v51h-51v-51h51zM210 223v51h-50c-14.667 0 -26.667 -5 -36 -15c-10 -10 -15 -22 -15 -36h101zM0 0v320h320v-320h-320z" />
    <glyph glyph-name=".notdef" 
d="M160 45v51h-51v-51h51zM210 104v51h-101v-51h101zM160 164v51h-51v-51h51zM210 223v51h-50c-14.667 0 -26.667 -5 -36 -15c-10 -10 -15 -22 -15 -36h101zM0 0v320h320v-320h-320z" />
    <glyph glyph-name="glyph1" horiz-adv-x="0" 
 />
    <glyph glyph-name="glyph1" horiz-adv-x="0" 
 />
    <glyph glyph-name="uni000D" unicode="&#xd;" horiz-adv-x="0" 
 />
    <glyph glyph-name="space" unicode=" " horiz-adv-x="64" 
 />
    <glyph glyph-name="exclam" unicode="!" horiz-adv-x="128" 
d="M0 0v64h64v-64h-64zM0 128v256h64v-256h-64z" />
    <glyph glyph-name="quotedbl" unicode="&#x22;" horiz-adv-x="320" 
d="M0 256v64h64v-64h-64zM128 256v64h64v-64h-64zM64 320v64h64v-64h-64zM192 320v64h64v-64h-64z" />
    <glyph glyph-name="numbersign" unicode="#" horiz-adv-x="384" 
d="M192 128v64h-64v-64h64zM64 0v64h-64v64h64v64h-64v64h64v64h64v-64h64v64h64v-64h64v-64h-64v-64h64v-64h-64v-64h-64v64h-64v-64h-64z" />
    <glyph glyph-name="dollar" unicode="$" horiz-adv-x="384" 
d="M0 128v64h64v-64h-64zM0 256v64h64v-64h-64zM256 256v64h64v-64h-64zM128 0v64h-64v64h64v64h-64v64h64v64h-64v64h64v64h64v-64h64v-64h-64v-128h128v-64h-64v-64h-64v-64h-64z" />
    <glyph glyph-name="percent" unicode="%" horiz-adv-x="320" 
d="M0 0v64h64v-64h-64zM192 0v64h64v-64h-64zM64 64v64h64v-64h-64zM128 128v64h64v-64h-64zM0 192v64h64v-64h-64zM192 192v64h64v-64h-64z" />
    <glyph glyph-name="ampersand" unicode="&#x26;" horiz-adv-x="384" 
d="M64 0v64h64v-64h-64zM192 0v64h64v-64h-64zM0 64v64h64v-64h-64zM256 64v64h64v-64h-64zM128 64v64h-64v128h64v-64h64v-128h-64zM192 192v64h64v-64h-64zM128 256v64h64v-64h-64z" />
    <glyph glyph-name="quotesingle" unicode="'" horiz-adv-x="192" 
d="M0 192v64h64v-64h-64zM64 256v64h64v-64h-64z" />
    <glyph glyph-name="parenleft" unicode="(" horiz-adv-x="192" 
d="M64 0v64h64v-64h-64zM0 64v192h64v-192h-64zM64 256v64h64v-64h-64z" />
    <glyph glyph-name="parenright" unicode=")" horiz-adv-x="192" 
d="M0 0v64h64v-64h-64zM64 64v192h64v-192h-64zM0 256v64h64v-64h-64z" />
    <glyph glyph-name="asterisk" unicode="*" 
d="M64 192v64h64v-64h-64zM0 256v64h64v-64h-64zM128 256v64h64v-64h-64z" />
    <glyph glyph-name="plus" unicode="+" 
d="M64 64v64h-64v64h64v64h64v-64h64v-64h-64v-64h-64z" />
    <glyph glyph-name="comma" unicode="," horiz-adv-x="192" 
d="M0 -64v64h64v-64h-64zM64 0v64h64v-64h-64z" />
    <glyph glyph-name="hyphen" unicode="-" 
d="M0 128v64h192v-64h-192z" />
    <glyph glyph-name="period" unicode="." horiz-adv-x="128" 
d="M0 0v64h64v-64h-64z" />
    <glyph glyph-name="slash" unicode="/" 
d="M0 0v64h64v-64h-64zM64 64v128h64v-128h-64zM128 192v64h64v-64h-64z" />
    <glyph glyph-name="zero" unicode="0" 
d="M64 0v64h64v-64h-64zM0 64v192h64v-192h-64zM128 64v192h64v-192h-64zM64 256v64h64v-64h-64z" />
    <glyph glyph-name="one" unicode="1" 
d="M0 0v64h64v128h-64v64h64v64h64v-256h64v-64h-192z" />
    <glyph glyph-name="two" unicode="2" 
d="M0 0v64h64v64h64v-64h64v-64h-192zM0 192v64h64v-64h-64zM128 128v128h64v-128h-64zM64 256v64h64v-64h-64z" />
    <glyph glyph-name="three" unicode="3" horiz-adv-x="192" 
d="M0 0v64h64v-64h-64zM64 64v64h-64v64h64v64h64v-192h-64zM0 256v64h64v-64h-64z" />
    <glyph glyph-name="four" unicode="4" horiz-adv-x="320" 
d="M128 0v128h-128v128h64v-64h64v64h-64v64h128v-128h64v-64h-64v-128h-64z" />
    <glyph glyph-name="five" unicode="5" 
d="M0 0v64h128v-64h-128zM128 64v64h64v-64h-64zM0 128v128h64v-64h64v-64h-128zM64 256v64h128v-64h-128z" />
    <glyph glyph-name="six" unicode="6" 
d="M64 0v64h64v-64h-64zM128 64v64h64v-64h-64zM0 64v192h64v-64h64v-64h-64v-64h-64zM64 256v64h128v-64h-128z" />
    <glyph glyph-name="seven" unicode="7" 
d="M128 0v128h-64v64h64v64h64v-256h-64zM0 256v64h128v-64h-128z" />
    <glyph glyph-name="eight" unicode="8" 
d="M64 0v64h64v-64h-64zM0 64v64h64v-64h-64zM128 64v64h64v-64h-64zM64 128v64h64v-64h-64zM0 192v64h64v-64h-64zM128 192v64h64v-64h-64zM64 256v64h64v-64h-64z" />
    <glyph glyph-name="nine" unicode="9" 
d="M0 192v64h64v-64h-64zM128 0v128h-64v64h64v64h64v-256h-64zM64 256v64h64v-64h-64z" />
    <glyph glyph-name="colon" unicode=":" horiz-adv-x="128" 
d="M0 0v64h64v-64h-64zM0 192v64h64v-64h-64z" />
    <glyph glyph-name="semicolon" unicode=";" horiz-adv-x="192" 
d="M0 -64v64h64v-64h-64zM64 0v64h64v-64h-64zM64 192v64h64v-64h-64z" />
    <glyph glyph-name="less" unicode="&#x3c;" 
d="M128 0v64h64v-64h-64zM64 64v64h64v-64h-64zM0 128v64h64v-64h-64zM64 192v64h64v-64h-64zM128 256v64h64v-64h-64z" />
    <glyph glyph-name="equal" unicode="=" 
d="M0 64v64h192v-64h-192zM0 192v64h192v-64h-192z" />
    <glyph glyph-name="greater" unicode="&#x3e;" 
d="M0 0v64h64v-64h-64zM64 64v64h64v-64h-64zM128 128v64h64v-64h-64zM64 192v64h64v-64h-64zM0 256v64h64v-64h-64z" />
    <glyph glyph-name="question" unicode="?" 
d="M64 0v64h64v-64h-64zM64 128v64h64v-64h-64zM0 256v64h64v-64h-64zM128 192v128h64v-128h-64zM64 320v64h64v-64h-64z" />
    <glyph glyph-name="at" unicode="@" horiz-adv-x="576" 
d="M128 0v64h320v-64h-320zM64 64v64h64v-64h-64zM448 64v64h64v-64h-64zM192 128v64h64v-64h-64zM320 128v64h64v-64h-64zM128 192v64h64v-64h-64zM256 192v64h64v-64h-64zM0 128v192h64v-192h-64zM192 256v64h64v-64h-64zM384 192v128h64v-128h-64zM64 320v64h64v-64h-64z
M320 320v64h64v-64h-64zM128 384v64h192v-64h-192z" />
    <glyph glyph-name="bracketleft" unicode="[" horiz-adv-x="192" 
d="M0 0v320h128v-64h-64v-192h64v-64h-128z" />
    <glyph glyph-name="backslash" unicode="\" 
d="M128 0v64h64v-64h-64zM64 64v128h64v-128h-64zM0 192v64h64v-64h-64z" />
    <glyph glyph-name="bracketright" unicode="]" horiz-adv-x="192" 
d="M0 0v64h64v192h-64v64h128v-320h-128z" />
    <glyph glyph-name="asciicircum" unicode="^" 
d="M0 192v64h64v-64h-64zM128 192v64h64v-64h-64zM64 256v64h64v-64h-64z" />
    <glyph glyph-name="underscore" unicode="_" horiz-adv-x="320" 
d="M0 0v64h256v-64h-256z" />
    <glyph glyph-name="grave" unicode="`" horiz-adv-x="192" 
d="M64 192v64h64v-64h-64zM0 256v64h64v-64h-64z" />
    <glyph glyph-name="a" unicode="a" horiz-adv-x="320" 
d="M0 0v64h64v-64h-64zM128 0v64h64v-64h-64zM-64 64v64h64v-64h-64zM64 64v64h64v-64h-64zM192 64v64h64v-64h-64zM0 128v64h64v-64h-64z" />
    <glyph glyph-name="b" unicode="b" 
d="M-64 0v64h64v-64h-64zM64 0v64h64v-64h-64zM128 64v64h64v-64h-64zM0 64v256h64v-128h64v-64h-64v-64h-64z" />
    <glyph glyph-name="c" unicode="c" 
d="M-64 0v64h64v-64h-64zM64 0v64h128v-64h-128zM0 64v64h64v-64h-64zM64 128v64h64v-64h-64z" />
    <glyph glyph-name="d" unicode="d" 
d="M0 0v64h64v-64h-64zM128 0v64h64v-64h-64zM-64 64v64h64v-64h-64zM64 64v64h-64v64h64v128h64v-256h-64z" />
    <glyph glyph-name="e" unicode="e" 
d="M0 0v64h-64v128h64v-64h64v-64h128v-64h-192zM64 128v64h64v-64h-64zM0 192v64h64v-64h-64z" />
    <glyph glyph-name="f" unicode="f" 
d="M-64 0v64h64v-64h-64zM64 0v64h128v-64h-128zM0 64v64h-64v64h64v64h64v-64h64v-64h-64v-64h-64zM64 256v64h64v-64h-64z" />
    <glyph glyph-name="g" unicode="g" 
d="M0 -256v64h64v-64h-64zM-64 -192v64h64v-64h-64zM-64 64v64h64v-64h-64zM64 -192v64h-64v64h64v64h-64v64h64v64h64v-128h64v-64h-64v-128h-64zM0 128v64h64v-64h-64z" />
    <glyph glyph-name="h" unicode="h" horiz-adv-x="320" 
d="M-64 0v64h64v-64h-64zM128 0v128h64v-64h64v-64h-128zM0 64v256h64v-128h64v-64h-64v-64h-64z" />
    <glyph glyph-name="i" unicode="i" horiz-adv-x="192" 
d="M-64 0v64h64v-64h-64zM64 0v64h64v-64h-64zM0 64v128h64v-128h-64zM0 256v64h64v-64h-64z" />
    <glyph glyph-name="j" unicode="j" horiz-adv-x="320" 
d="M0 -256v64h64v-64h-64zM-64 -192v64h64v-64h-64zM192 0v64h64v-64h-64zM64 -192v64h-64v64h64v192h64v-128h64v-64h-64v-128h-64zM64 192v64h64v-64h-64z" />
    <glyph glyph-name="k" unicode="k" horiz-adv-x="320" 
d="M-64 0v64h64v-64h-64zM192 0v64h64v-64h-64zM128 64v64h64v-64h-64zM128 192v64h64v-64h-64zM0 64v256h64v-128h64v-64h-64v-64h-64z" />
    <glyph glyph-name="l" unicode="l" 
d="M-64 0v64h64v-64h-64zM64 0v64h128v-64h-128zM0 64v64h64v-64h-64zM-64 128v128h64v-128h-64zM64 128v128h64v-128h-64zM0 256v64h64v-64h-64z" />
    <glyph glyph-name="m" unicode="m" horiz-adv-x="384" 
d="M64 0v64h64v-64h-64zM192 0v64h128v-64h-128zM128 64v64h64v-64h-64zM-64 0v192h64v-64h64v-64h-64v-64h-64z" />
    <glyph glyph-name="n" unicode="n" 
d="M64 0v64h128v-64h-128zM-64 0v192h64v-64h64v-64h-64v-64h-64z" />
    <glyph glyph-name="o" unicode="o" 
d="M0 0v64h64v-64h-64zM-64 64v64h64v-64h-64zM64 64v64h64v-64h-64zM0 128v64h64v-64h-64zM128 128v64h64v-64h-64z" />
    <glyph glyph-name="p" unicode="p" 
d="M0 -128v256h64v-64h64v-64h-64v-128h-64zM128 64v64h64v-64h-64zM-64 128v64h64v-64h-64zM64 128v64h64v-64h-64z" />
    <glyph glyph-name="q" unicode="q" 
d="M-64 64v64h64v-64h-64zM64 -128v128h-64v64h64v64h64v-256h-64zM0 128v64h64v-64h-64zM128 128v64h64v-64h-64z" />
    <glyph glyph-name="r" unicode="r" 
d="M0 0v128h64v-128h-64zM128 64v64h64v-64h-64zM-64 128v64h64v-64h-64zM64 128v64h64v-64h-64z" />
    <glyph glyph-name="s" unicode="s" 
d="M-64 0v64h64v-64h-64zM0 64v64h64v-64h-64zM64 0v64h64v64h64v-128h-128zM64 128v64h64v-64h-64z" />
    <glyph glyph-name="t" unicode="t" horiz-adv-x="192" 
d="M64 0v64h64v-64h-64zM0 64v128h-64v64h64v64h64v-64h64v-64h-64v-128h-64z" />
    <glyph glyph-name="u" unicode="u" 
d="M0 0v64h64v-64h-64zM128 0v64h64v-64h-64zM-64 64v64h64v-64h-64zM64 64v64h64v-64h-64z" />
    <glyph glyph-name="v" unicode="v" horiz-adv-x="192" 
d="M0 0v64h64v-64h-64zM-64 64v64h64v-64h-64zM64 64v64h64v-64h-64z" />
    <glyph glyph-name="w" unicode="w" horiz-adv-x="320" 
d="M0 0v64h64v-64h-64zM128 0v64h64v-64h-64zM-64 64v64h64v-64h-64zM64 64v64h64v-64h-64zM192 64v64h64v-64h-64z" />
    <glyph glyph-name="x" unicode="x" horiz-adv-x="192" 
d="M-64 0v64h64v-64h-64zM64 0v64h64v-64h-64zM0 64v64h64v-64h-64zM-64 128v64h64v-64h-64zM64 128v64h64v-64h-64z" />
    <glyph glyph-name="y" unicode="y" horiz-adv-x="320" 
d="M0 -256v64h64v-64h-64zM-64 -192v64h64v-64h-64zM192 0v64h64v-64h-64zM-64 64v64h64v-64h-64zM64 -192v64h-64v64h64v64h-64v64h64v64h64v-128h64v-64h-64v-128h-64z" />
    <glyph glyph-name="z" unicode="z" horiz-adv-x="320" 
d="M0 -256v64h64v-64h-64zM-64 -192v64h64v-64h-64zM192 0v64h64v-64h-64zM64 -192v64h-64v64h64v64h-64v64h64v64h64v-128h64v-64h-64v-128h-64zM-64 128v64h128v-64h-128z" />
    <glyph glyph-name="braceleft" unicode="{" 
d="M128 0v64h64v-64h-64zM64 64v64h-64v64h64v64h64v-192h-64zM128 256v64h64v-64h-64z" />
    <glyph glyph-name="bar" unicode="|" horiz-adv-x="128" 
d="M0 0v320h64v-320h-64z" />
    <glyph glyph-name="braceright" unicode="}" 
d="M0 0v64h64v-64h-64zM64 64v192h64v-64h64v-64h-64v-64h-64zM0 256v64h64v-64h-64z" />
    <glyph glyph-name="asciitilde" unicode="~" horiz-adv-x="320" 
d="M0 128v64h64v-64h-64zM128 128v64h64v-64h-64zM64 192v64h64v-64h-64zM192 192v64h64v-64h-64z" />
    <glyph glyph-name="guillemotleft" unicode="&#xab;" horiz-adv-x="320" 
d="M64 0v64h64v-64h-64zM192 0v64h64v-64h-64zM0 64v64h64v-64h-64zM128 64v64h64v-64h-64zM64 128v64h64v-64h-64zM192 128v64h64v-64h-64z" />
    <glyph glyph-name="plusminus" unicode="&#xb1;" 
d="M0 0v64h192v-64h-192zM64 128v64h-64v64h64v64h64v-64h64v-64h-64v-64h-64z" />
    <glyph glyph-name="guillemotright" unicode="&#xbb;" horiz-adv-x="320" 
d="M0 0v64h64v-64h-64zM128 0v64h64v-64h-64zM64 64v64h64v-64h-64zM192 64v64h64v-64h-64zM0 128v64h64v-64h-64zM128 128v64h64v-64h-64z" />
    <glyph glyph-name="divide" unicode="&#xf7;" 
d="M64 0v64h64v-64h-64zM0 128v64h192v-64h-192zM64 256v64h64v-64h-64z" />
    <glyph glyph-name="quoteleft" unicode="&#x2018;" horiz-adv-x="192" 
d="M0 256v64h64v-64h-64zM64 320v64h64v-64h-64z" />
    <glyph glyph-name="quoteright" unicode="&#x2019;" horiz-adv-x="192" 
d="M64 256v64h64v-64h-64zM0 320v64h64v-64h-64z" />
    <glyph glyph-name="quotedblleft" unicode="&#x201c;" horiz-adv-x="320" 
d="M0 256v64h64v-64h-64zM128 256v64h64v-64h-64zM64 320v64h64v-64h-64zM192 320v64h64v-64h-64z" />
    <glyph glyph-name="quotedblright" unicode="&#x201d;" horiz-adv-x="320" 
d="M64 256v64h64v-64h-64zM192 256v64h64v-64h-64zM0 320v64h64v-64h-64zM128 320v64h64v-64h-64z" />
    <glyph glyph-name="guilsinglleft" unicode="&#x2039;" horiz-adv-x="192" 
d="M64 0v64h64v-64h-64zM0 64v64h64v-64h-64zM64 128v64h64v-64h-64z" />
    <glyph glyph-name="guilsinglright" unicode="&#x203a;" horiz-adv-x="192" 
d="M0 0v64h64v-64h-64zM64 64v64h64v-64h-64zM0 128v64h64v-64h-64z" />
  </font>
</defs>
</svg>
